<svg viewBox="0 0 318.047 281.126" xmlns="http://www.w3.org/2000/svg"><path d="m241.93 265.68-13.259-13.536-11.529-11.786-9.979-10.196-8.587-8.765-7.315-7.454-6.202-6.32-5.248-5.347-4.433-4.492-3.796-3.836-3.28-3.3-2.922-2.921-2.724-2.703-2.663-2.644-2.783-2.723-3.002-2.981-6.182 6.44-6.162 6.42-6.182 6.44-6.182 6.42-6.162 6.439-6.182 6.44-6.162 6.44-6.182 6.44-6.182 6.44-6.162 6.439-6.182 6.44-6.163 6.44-6.182 6.44-6.182 6.44-6.162 6.439-6.182 6.46-.596-.04-.636-.1-.636-.178-.676-.22-.676-.277-.696-.338-.715-.378-.716-.417-.716-.457-.735-.497-.736-.537-.735-.576-.736-.577-.735-.616-.716-.616-.715-.656-.716-.636-.696-.676-.675-.656-.656-.656-1.273-1.311-1.192-1.253-1.054-1.172-.934-1.054-.795-.934-.636-.735-.537-1.093-.517-1.054-.517-1.073-.517-1.054-.516-1.053-.517-1.053-.497-1.034-.517-1.053 2.286-2.326 3.578-3.597 4.731-4.691 5.705-5.645 6.52-6.42 7.136-7.036 7.614-7.493 7.93-7.792 8.032-7.91 8.01-7.891 7.812-7.672 7.435-7.334 6.897-6.798 6.182-6.102 5.288-5.267 4.274-4.253.497-.338.397-.259.298-.218.259-.2.199-.218.218-.238.259-.298.298-.398-3.876-3.955-3.897-3.975-3.876-3.956-3.876-3.955-3.876-3.955-3.876-3.956-3.896-3.955-3.877-3.955-3.876-3.936-3.876-3.955-3.876-3.955-3.896-3.936-3.877-3.955-3.876-3.955-3.876-3.936-3.876-3.955-2.147 2.465-2.147 2.484-2.127 2.465-2.127 2.484-2.107 2.485-2.107 2.504-2.087 2.524-2.067 2.525-2.068 2.524-2.027 2.564-2.028 2.564-1.988 2.584-1.987 2.584-1.929 2.623-1.928 2.624-1.888 2.663-.06.199-.06.199-.04.218-.02.2-.476-.2-.457-.198-.477-.18-.477-.158-2.286-1.908-2.267-1.928-2.286-1.908-2.266-1.928-2.286-1.909-2.266-1.908-2.286-1.908-2.266-1.928-2.286-1.908-2.286-1.908-2.266-1.908-2.286-1.908-2.266-1.908-2.286-1.908-2.266-1.889-2.286-1.908 1.033-1.311 1.014-1.292 1.034-1.292 1.033-1.312L5.143 95.7l1.034-1.292 1.013-1.312 1.034-1.292 1.034-1.291 1.033-1.312 1.014-1.292 1.034-1.292 1.033-1.312 1.034-1.292 1.014-1.312 1.033-1.291 2.445-2.743 2.465-2.743 2.445-2.723 2.465-2.723 2.445-2.684 2.485-2.683 2.465-2.683 2.484-2.664 2.485-2.643 2.485-2.624 2.504-2.623 2.505-2.604 2.524-2.584 2.525-2.584 2.544-2.564 2.565-2.544 2.564-2.544 2.564-2.524 2.584-2.524 2.604-2.485 2.624-2.484 2.644-2.485 2.644-2.445 2.663-2.445 2.684-2.424 2.683-2.425 2.724-2.405 2.743-2.385 2.743-2.386L93.54 4.69l2.783-2.365 2.823-2.326h.993l1.869 2.187 1.888 2.186 1.909 2.206 1.908 2.226 1.908 2.227 1.928 2.226 1.948 2.246 1.948 2.246 1.968 2.266 1.968 2.265 1.988 2.266 1.988 2.286 2.008 2.286 2.007 2.285 2.028 2.286 2.047 2.286-2.624 2.385-2.624 2.345-2.643 2.326-2.664 2.305-2.683 2.306-2.684 2.306-2.683 2.285-2.684 2.286-2.683 2.306-2.664 2.285-2.664 2.306-2.643 2.306-2.624 2.325-2.604 2.345-2.565 2.366-2.564 2.385 4.015 3.836 4.016 3.856 4.015 3.836 4.016 3.856 4.015 3.836 4.015 3.856 4.016 3.856 4.015 3.836 4.015 3.856 4.016 3.856 4.015 3.856 4.016 3.855 4.015 3.856 4.015 3.856 4.016 3.856 4.015 3.856.199.02.199.04.218.06.199.059 3.836-3.796 3.857-3.797 3.856-3.796 3.856-3.796 3.837-3.796 3.856-3.797 3.856-3.776 3.877-3.796 3.856-3.797 3.856-3.796 3.856-3.796 3.857-3.797 3.876-3.796 3.856-3.796 3.857-3.797 3.876-3.796-.08-.517-.258-.616-.398-.715-.536-.815-.676-.895-.815-.974-.915-1.053-1.013-1.133-1.114-1.193-1.212-1.232-1.292-1.292-1.352-1.351-1.411-1.372-1.471-1.41-1.491-1.432-1.55-1.431-3.121-2.942-3.161-2.922-3.081-2.882-2.962-2.782-1.391-1.332-1.352-1.292-1.272-1.232-1.193-1.193-1.093-1.113-1.014-1.053-.895-.974-.775-.914 2.067-2.087 2.088-2.087 2.067-2.087 2.087-2.087 2.067-2.067 2.088-2.087 2.067-2.087 2.087-2.087 2.067-2.067 2.088-2.087 2.087-2.068 2.087-2.087 2.067-2.067 2.087-2.067 2.108-2.087 2.087-2.067h1.073l6.44 6.44 5.626 5.645 4.87 4.89 4.194 4.193 3.559 3.558 2.961 2.961 2.445 2.425 1.968 1.948 1.53 1.51 1.194 1.153.854.835.617.557.417.358.258.178.18.1.138.04.676-.676.696-.676.676-.676.715-.676.696-.675.696-.676.716-.676.715-.676 1.093 1.074 1.133 1.053 1.114 1.073 1.113 1.054 1.113 1.073 1.113 1.053 1.113 1.074 1.114 1.053 1.113 1.073 1.113 1.054 1.113 1.073 1.113 1.054 1.114 1.053 1.113 1.073 1.113 1.054 1.113 1.073-.02.219-.02.198-.06.239-.059.218-.1.22-.099.238-.119.218-.139.239-.298.457-.338.477-.398.457-.397.477-.438.457-.437.438-.437.437-.437.417-.815.756-.696.675 1.073 1.074 1.074 1.073 1.093 1.053 1.073 1.074 1.074 1.073 1.073 1.073 1.074 1.093 1.053 1.094 1.054 1.132 1.053 1.133 1.034 1.173 1.033 1.212 1.014 1.233.994 1.272.994 1.312.974 1.371 2.008 3.816 2.027 3.836 2.028 3.836 2.047 3.837 2.028 3.836 2.027 3.836 2.048 3.836 2.027 3.856 2.048 3.836 2.027 3.836 2.048 3.856 2.027 3.836 2.048 3.856 2.047 3.836 2.028 3.856 2.047 3.836-4.254-1.948-4.254-1.928-4.254-1.928-4.234-1.948-4.253-1.928-4.254-1.928-4.254-1.928-4.254-1.928-4.254-1.928-4.254-1.928-4.254-1.928-4.234-1.908-4.254-1.928-4.254-1.928-4.254-1.928-4.253-1.908-.935-.934-.954-.934-.934-.914-.954-.915-.935-.934-.954-.914-.934-.915-.934-.914-.954-.914-.935-.914-.934-.915-.934-.914-.934-.914-.935-.915-.934-.894-.934-.914h-.06l-.06.02-.079.06-.12.059-.357.298-.616.576-.935.935-1.371 1.371-1.889 1.928-2.464 2.544-3.18 3.28-3.937 4.094-4.81 5.009-5.745 5.982-6.798 7.076-7.912 8.249-9.144 9.52-10.436 10.892v1.173l6.66 6.36 6.659 6.34 6.679 6.361 6.659 6.36 6.659 6.36 6.659 6.361 6.679 6.38 6.66 6.36 6.678 6.36 6.66 6.361 6.678 6.36 6.66 6.38 6.678 6.36 6.68 6.381 6.678 6.36 6.68 6.38-.16.796-.238.834-.318.875-.378.874-.437.915-.497.914-.557.934-.596.954-.656.954-.716.954-.735.954-.795.954-.815.935-.855.934-.875.934-.914.894-.934.875-.935.855-.974.834-.974.795-.974.756-.994.735-.994.676-.993.636-.974.576-.974.537-.974.477-.935.398-.934.357-.914.279-.875.218-.855.14z" fill="#131516" fill-rule="evenodd"/></svg>